<?xml version="1.0" standalone="no"?>
<!DOCTYPE svg PUBLIC "-//W3C//DTD SVG 20010904//EN"
 "http://www.w3.org/TR/2001/REC-SVG-20010904/DTD/svg10.dtd">
<svg version="1.0" xmlns="http://www.w3.org/2000/svg"
 width="980.000000pt" height="981.000000pt" viewBox="0 0 980.000000 981.000000"
 preserveAspectRatio="xMidYMid meet">

<g transform="translate(0.000000,981.000000) scale(0.100000,-0.100000)"
fill="#000000" stroke="none">
<path d="M4570 9799 c-730 -49 -1486 -285 -2115 -659 -1308 -779 -2189 -2110
-2404 -3635 -63 -441 -66 -923 -10 -1365 230 -1827 1421 -3380 3099 -4043 195
-77 229 -87 296 -87 104 0 186 51 227 140 21 44 21 57 18 500 -1 250 -4 456
-6 458 -2 2 -39 -3 -82 -12 -203 -40 -461 -51 -631 -27 -260 37 -477 136 -651
298 -130 120 -209 236 -280 413 -150 369 -306 581 -553 749 -83 57 -163 135
-178 176 -34 90 124 148 303 111 250 -51 491 -235 658 -500 152 -242 276 -367
454 -456 151 -76 228 -93 415 -94 121 0 176 5 250 21 96 22 286 85 302 101 5
5 18 53 29 106 40 197 110 353 220 492 33 42 59 77 57 78 -2 2 -48 8 -103 15
-55 7 -169 26 -254 42 -929 181 -1489 644 -1727 1429 -132 435 -169 1028 -89
1428 62 304 202 601 397 841 l60 74 -25 86 c-53 178 -62 249 -62 496 1 174 5
252 18 321 22 116 81 333 107 391 l20 46 138 -6 c105 -3 160 -11 237 -31 249
-67 539 -208 853 -414 l113 -74 77 21 c702 188 1526 192 2255 10 l118 -30 147
94 c443 285 807 427 1091 427 l110 0 21 -57 c63 -170 114 -419 125 -618 11
-187 -21 -444 -75 -601 -19 -54 -19 -58 -2 -79 9 -12 46 -59 81 -105 187 -242
314 -536 372 -860 27 -148 36 -458 20 -670 -50 -657 -233 -1132 -575 -1488
-360 -373 -856 -585 -1593 -677 l-52 -7 64 -75 c115 -138 194 -320 237 -549
23 -118 23 -125 20 -913 -2 -575 0 -808 8 -843 27 -112 117 -178 243 -178 58
0 89 8 205 51 1300 487 2334 1502 2861 2807 186 459 300 934 353 1467 17 171
17 729 0 900 -89 888 -355 1651 -827 2370 -604 919 -1525 1626 -2566 1968
-568 187 -1210 267 -1819 226z m805 -364 c899 -103 1709 -449 2395 -1021 126
-105 390 -363 504 -494 904 -1031 1311 -2379 1136 -3757 -111 -866 -450 -1661
-1008 -2363 -134 -168 -484 -524 -642 -652 -281 -228 -579 -422 -875 -571 -82
-41 -390 -177 -400 -177 -3 0 -5 267 -5 593 -1 812 -12 976 -82 1211 -16 54
-27 100 -25 103 3 2 63 19 134 38 933 246 1536 846 1763 1755 90 361 129 818
100 1165 -35 410 -160 773 -375 1095 l-77 115 23 130 c27 162 37 438 20 598
-24 222 -67 398 -159 649 l-57 158 -90 30 c-161 53 -286 62 -473 34 -279 -41
-607 -174 -970 -392 l-149 -90 -84 20 c-125 29 -407 75 -581 95 -216 24 -780
24 -996 0 -178 -20 -460 -67 -581 -96 l-84 -20 -101 63 c-425 266 -826 417
-1151 433 -125 6 -221 -9 -351 -55 l-77 -27 -44 -114 c-179 -465 -228 -917
-145 -1332 l17 -84 -80 -120 c-323 -483 -435 -1034 -359 -1762 69 -664 286
-1187 655 -1577 l84 -90 -76 52 c-200 136 -444 211 -649 199 -288 -17 -469
-151 -511 -380 -22 -120 17 -246 116 -369 47 -58 205 -192 261 -221 48 -25
150 -133 209 -222 64 -96 111 -190 165 -325 65 -163 129 -276 229 -400 113
-142 -322 290 -466 462 -385 460 -672 968 -861 1529 -369 1087 -331 2293 105
3349 189 458 428 853 754 1245 116 140 420 441 570 565 737 611 1600 963 2549
1039 164 14 627 5 795 -14z m-2755 -6825 c202 -115 499 -233 720 -285 41 -10
78 -20 82 -24 4 -3 -2 -39 -14 -79 -24 -82 -23 -82 -173 -103 -281 -39 -492
77 -664 366 -62 104 -155 230 -199 269 -51 44 -16 31 61 -24 45 -33 129 -86
187 -120z m10 -1818 c183 -58 344 -82 562 -82 l137 0 3 -152 c2 -84 2 -154 2
-156 -3 -5 -195 73 -296 120 -154 72 -355 180 -495 267 -73 45 -133 84 -133
86 0 2 28 -9 63 -24 34 -16 105 -42 157 -59z"/>
</g>
</svg>
