<?xml version="1.0" standalone="no"?>
<!DOCTYPE svg PUBLIC "-//W3C//DTD SVG 20010904//EN"
 "http://www.w3.org/TR/2001/REC-SVG-20010904/DTD/svg10.dtd">
<svg version="1.0" xmlns="http://www.w3.org/2000/svg"
 width="125.000000pt" height="125.000000pt" viewBox="0 0 125.000000 125.000000"
 preserveAspectRatio="xMidYMid meet">

<g transform="translate(0.000000,125.000000) scale(0.100000,-0.100000)"
fill="#000000" stroke="none">
<path d="M522 1239 c-342 -60 -568 -381 -508 -719 43 -243 236 -445 472 -495
215 -46 414 14 569 170 220 220 244 543 60 801 -78 109 -214 201 -345 232 -68
16 -189 22 -248 11z m285 -59 c143 -50 270 -162 333 -295 45 -95 60 -159 60
-262 0 -262 -193 -504 -450 -564 -190 -44 -393 15 -536 156 -323 318 -177 856
266 980 79 22 245 14 327 -15z"/>
<path d="M315 935 c-63 -62 10 -150 95 -115 53 22 60 103 11 129 -34 19 -80
13 -106 -14z"/>
<path d="M730 735 c-19 -9 -42 -23 -52 -32 -17 -15 -18 -14 -18 10 0 26 -1 27
-65 27 l-65 0 0 -220 0 -220 65 0 65 0 0 141 0 141 29 29 c37 36 79 38 118 5
28 -24 28 -24 31 -170 l3 -146 66 0 65 0 -4 163 c-3 181 -16 225 -76 260 -43
25 -119 31 -162 12z"/>
<path d="M310 515 l0 -225 65 0 65 0 0 225 0 225 -65 0 -65 0 0 -225z"/>
</g>
</svg>
